<svg width="128" height="128" viewBox="0 0 128 128" fill="none" xmlns="http://www.w3.org/2000/svg">
    <path d="M64 70.7475C58.6311 66.781 51.6601 61.6309 46.3131 57.6806C41.6134 54.2086 38.1683 51.6633 38.1683 51.6633L28.6262 70.7475L46.3131 82.1238C46.3131 82.1238 57.0928 89.0573 64 93.5C70.9072 89.0573 81.6869 82.1238 81.6869 82.1238L99.3738 70.7475L89.8317 51.6633C89.8317 51.6633 86.3866 54.2086 81.6869 57.6806C76.3399 61.6309 69.3689 66.781 64 70.7475Z"
          fill="#FD7474"/>
    <path d="M128 128L99.3738 70.7475L81.6869 82.1238L99.3738 128H128Z" fill="#312974"/>
    <path d="M19.0842 89.8317L0 128H28.6262L46.3131 82.1238L28.6262 70.7475L19.0842 89.8317Z" fill="#312974"/>
    <path d="M89.8317 51.6633L64 0L38.1683 51.6633L46.3131 57.6806C46.3131 57.6806 49.5 39.5 64 39.5C78.5 39.5 81.6869 57.6806 81.6869 57.6806L89.8317 51.6633Z"
          fill="#285E74"/>
</svg>
